<svg width="13" height="13" viewBox="0 0 13 13" fill="none" xmlns="http://www.w3.org/2000/svg">
<path d="M1.69048 5.77664C1.29098 5.39531 0.657984 5.41003 0.276644 5.80952C-0.104695 6.20902 -0.0899739 6.84202 0.309524 7.22336L1.69048 5.77664ZM4.66667 10L3.97619 10.7234C4.36262 11.0922 4.97072 11.0922 5.35714 10.7234L4.66667 10ZM12.6905 3.72336C13.09 3.34202 13.1047 2.70902 12.7234 2.30952C12.342 1.91003 11.709 1.89531 11.3095 2.27664L12.6905 3.72336ZM0.309524 7.22336L3.97619 10.7234L5.35714 9.27664L1.69048 5.77664L0.309524 7.22336ZM5.35714 10.7234L12.6905 3.72336L11.3095 2.27664L3.97619 9.27664L5.35714 10.7234Z" fill="#B5B5B5"/>
</svg>
